<?xml version="1.0" standalone="no"?>
<!DOCTYPE svg PUBLIC "-//W3C//DTD SVG 20010904//EN"
 "http://www.w3.org/TR/2001/REC-SVG-20010904/DTD/svg10.dtd">
<svg version="1.0" xmlns="http://www.w3.org/2000/svg"
 width="256.000000pt" height="256.000000pt" viewBox="0 0 256.000000 256.000000"
 preserveAspectRatio="xMidYMid meet">

<g transform="translate(0.000000,256.000000) scale(0.100000,-0.100000)"
fill="#000000" stroke="none">
<path d="M1488 2334 c-5 -4 -8 -27 -8 -52 0 -36 -5 -49 -31 -73 -25 -24 -30
-35 -27 -60 l5 -31 -81 7 c-87 7 -216 -6 -310 -30 -323 -84 -588 -350 -678
-680 -31 -115 -31 -365 0 -477 73 -266 256 -490 499 -612 125 -62 229 -88 386
-93 145 -6 213 2 327 39 331 106 581 390 645 733 24 127 16 308 -19 428 -92
312 -313 540 -629 650 -15 6 -17 14 -11 55 6 45 4 50 -22 71 -24 19 -30 32
-34 78 -3 30 -8 51 -12 47z m35 -152 c22 -24 13 -32 -35 -32 -39 0 -49 15 -26
38 17 17 42 15 61 -6z m7 -122 l0 -60 -35 0 -35 0 0 60 0 60 35 0 35 0 0 -60z
m-152 24 l52 -7 0 -38 c0 -39 0 -39 -40 -39 l-39 0 -3 -72 c-3 -63 1 -81 25
-131 25 -52 27 -67 25 -145 l-3 -87 -107 -3 -108 -3 0 -269 0 -270 -60 0 -60
0 0 135 c0 74 5 154 12 178 6 24 8 59 4 81 -14 73 -121 160 -243 196 l-43 13
0 56 0 57 95 33 c52 18 95 35 95 36 0 1 -43 18 -95 36 -53 19 -95 39 -95 46 0
7 -7 13 -15 13 -13 0 -15 -22 -15 -138 l0 -139 -42 -13 c-113 -33 -206 -104
-234 -176 -15 -38 -15 -53 -6 -95 7 -28 12 -111 12 -185 l0 -134 -54 0 c-52 0
-54 1 -60 31 -11 59 -6 230 10 307 75 367 366 650 737 717 81 15 176 18 255 9z
m276 -78 c311 -143 515 -440 533 -777 3 -58 3 -126 -1 -151 l-7 -46 -74 0 -75
0 0 264 0 264 -219 0 -220 0 -3 96 c-3 90 -1 99 24 143 24 39 28 57 28 123 l0
77 -42 3 c-31 2 -44 8 -46 21 -5 25 20 21 102 -17z m-44 -91 l0 -55 -120 0
-120 0 0 55 0 55 120 0 120 0 0 -55z m-28 -115 c-16 -29 -20 -30 -89 -30 -63
0 -74 3 -87 22 -9 12 -16 26 -16 30 0 5 47 8 105 8 l104 0 -17 -30z m-24 -147
l-3 -88 -62 -3 -63 -3 0 91 0 90 65 0 66 0 -3 -87z m-694 -83 c127 -48 189
-114 184 -197 l-3 -48 -267 -3 -267 -2 -7 35 c-9 48 1 78 37 119 38 44 85 73
163 103 65 24 77 23 160 -7z m1136 -498 l0 -458 -40 -39 -40 -39 0 457 0 457
-315 0 -315 0 0 -515 0 -515 -40 0 -40 0 0 555 0 555 395 0 395 0 0 -458z
m-960 198 c0 -19 -7 -20 -260 -20 -253 0 -260 1 -260 20 0 19 7 20 260 20 253
0 260 -1 260 -20z m690 -85 c0 -3 -18 4 -40 15 -22 11 -40 23 -40 25 0 3 18
-4 40 -15 22 -11 40 -23 40 -25z m-692 -62 l-3 -98 -82 -3 -83 -3 0 66 0 65
-90 0 -90 0 0 -65 0 -65 -85 0 -85 0 0 100 0 100 260 0 261 0 -3 -97z m512 93
c0 -2 -7 -7 -16 -10 -8 -3 -12 -2 -9 4 6 10 25 14 25 6z m265 -96 c21 -22 37
-40 34 -40 -3 0 -23 18 -44 40 -21 22 -37 40 -34 40 3 0 23 -18 44 -40z m53
-75 c-3 -3 -9 2 -12 12 -6 14 -5 15 5 6 7 -7 10 -15 7 -18z m-531 -37 c-3 -8
-6 -5 -6 6 -1 11 2 17 5 13 3 -3 4 -12 1 -19z m299 -4 c18 -14 18 -14 -6 -3
-31 14 -36 19 -24 19 6 0 19 -7 30 -16z m534 -13 c0 -30 -63 -198 -98 -260
l-37 -66 -3 160 c-1 87 0 165 3 173 7 19 135 13 135 -7z m-990 -286 l0 -285
-133 0 -134 0 -1 175 c0 199 -7 220 -85 274 -60 40 -81 45 -119 25 -99 -51
-121 -87 -128 -208 l-5 -88 -33 46 c-25 34 -29 46 -18 46 13 0 16 15 16 94 l0
94 -40 36 c-42 38 -55 42 -80 26 -11 -7 -17 -5 -22 8 -17 43 -27 42 387 42
l395 0 0 -285z m526 234 c8 -16 14 -36 14 -46 -1 -10 -7 -1 -14 20 -8 21 -22
48 -33 60 -17 20 -17 21 0 8 10 -8 25 -27 33 -42z m-209 -76 c-3 -10 -5 -2 -5
17 0 19 2 27 5 18 2 -10 2 -26 0 -35z m-32 -61 c-3 -3 -11 0 -18 7 -9 10 -8
11 6 5 10 -3 15 -9 12 -12z m386 -9 c13 -16 12 -17 -3 -4 -17 13 -22 21 -14
21 2 0 10 -8 17 -17z m-359 -75 c6 -76 -5 -65 -12 12 -3 33 -3 56 1 52 4 -4 9
-33 11 -64z m236 -5 c-12 -117 -17 -129 -11 -28 5 81 9 105 17 105 1 0 -1 -35
-6 -77z m-119 63 c-2 -2 -15 -9 -29 -15 -24 -11 -24 -11 -6 3 16 13 49 24 35
12z m-262 -78 c-2 -13 -4 -5 -4 17 -1 22 1 32 4 23 2 -10 2 -28 0 -40z m338
32 c10 -11 16 -20 13 -20 -3 0 -13 9 -23 20 -10 11 -16 20 -13 20 3 0 13 -9
23 -20z m-145 6 c0 -2 -8 -10 -17 -17 -16 -13 -17 -12 -4 4 13 16 21 21 21 13z
m-82 -73 c-15 -2 -42 -2 -60 0 -18 2 -6 4 27 4 33 0 48 -2 33 -4z m315 0 c-7
-2 -21 -2 -30 0 -10 3 -4 5 12 5 17 0 24 -2 18 -5z m74 1 c-3 -3 -12 -4 -19
-1 -8 3 -5 6 6 6 11 1 17 -2 13 -5z m-350 -106 c-2 -13 -4 -3 -4 22 0 25 2 35
4 23 2 -13 2 -33 0 -45z m231 -78 c0 -30 -3 -44 -5 -30 -3 22 -8 25 -46 24
-40 -1 -40 -1 -4 3 36 4 37 5 37 46 0 31 3 38 10 27 5 -8 9 -40 8 -70z m155
27 c7 4 6 -1 -2 -10 -19 -24 -21 -22 -20 16 1 23 3 26 6 9 3 -14 9 -20 16 -15z
m-392 -45 c-4 -54 -11 -53 -11 3 0 27 3 45 7 41 4 -4 6 -24 4 -44z m96 12 c-3
-3 -12 -4 -19 -1 -8 3 -5 6 6 6 11 1 17 -2 13 -5z m137 -94 c-20 -20 -186 -81
-261 -96 -101 -20 -277 -20 -372 0 -75 17 -236 77 -255 96 -7 7 138 10 444 10
306 0 451 -3 444 -10z"/>
<path d="M1410 1914 c0 -45 24 -42 28 4 2 24 -1 32 -12 32 -12 0 -16 -10 -16
-36z"/>
<path d="M1480 1915 c0 -25 4 -35 13 -32 6 2 12 16 12 32 0 16 -6 30 -12 33
-9 2 -13 -8 -13 -33z"/>
<path d="M1550 1915 c0 -19 5 -35 10 -35 6 0 10 16 10 35 0 19 -4 35 -10 35
-5 0 -10 -16 -10 -35z"/>
<path d="M1014 931 c-54 -33 -64 -56 -64 -153 l0 -88 100 0 100 0 0 91 0 91
-39 39 c-44 44 -54 46 -97 20z"/>
<path d="M1006 631 c-40 -27 -55 -57 -56 -113 l0 -48 100 0 100 0 0 56 c0 52
-3 59 -36 90 -40 39 -66 42 -108 15z"/>
</g>
</svg>
